# Rhino

mtllib 01.mtl
usemtl diffuse_0_0_0_255
v 4693.6263429999999 -381.74542200000002 163.52818300000001
v 4730.486328 -392.21340900000001 175.751328
v 4742.256042 -386.69632000000001 180.46418800000001
v 4746.7505190000002 -356.84329200000002 184.800354
v 4730.486328 -392.21343999999999 175.751328
v 4690.9665219999997 -380.92086799999998 159.01799
v 4697.7717899999998 -382.07199100000003 120.27823600000001
v 4699.6092529999996 -378.56552099999999 116.61444899999999
v 4697.7717589999993 -382.07199100000003 120.27823600000001
v 4690.966461 -380.92083700000001 159.01799
v 4711.3973690000003 -341.93237299999998 118.280548
v 4711.3973690000003 -341.93237299999998 118.28054
v 4714.884247 -340.06494099999998 119.28936
v 4752.5020450000002 -350.23864700000001 131.91726700000001
v 4699.6092829999998 -378.56552099999999 116.61444899999999
v 4759.4272460000002 -352.27688599999999 143.47959900000001
v 4752.5020450000002 -350.23861699999998 131.91726700000001
v 4714.884247 -340.064911 119.289368
v 4749.9693299999999 -350.39129600000001 177.86752300000001
v 4749.9693299999999 -350.39132699999999 177.86752300000001
v 4759.4272460000002 -352.27691700000003 143.47958399999999
v 4742.2560730000005 -386.69635 180.46417199999999
v 4714.884247 -340.064911 119.28937500000001
v 4711.3973690000003 -341.932343 118.280563
v 4690.9665219999997 -380.92083700000001 159.01800499999999
v 4693.6263120000003 -381.74539199999998 163.528198
vn -0.39669579267501831 -0.69024771451950073 0.60513681173324585
vn 0.4672606885433197 -0.87195116281509399 -0.14618022739887238
vn 0.44223418831825256 -0.19377866387367249 0.87571614980697632
vn 0.052807014435529709 0.27107533812522888 0.9611085057258606
vn -0.26750472187995911 -0.96338152885437012 -0.018365714699029922
vn -0.26750472187995911 -0.96338152885437012 -0.018365714699029922
vn 0.28561475872993469 -0.89872652292251587 -0.33273842930793762
vn -0.93517142534255981 0.30881637334823608 -0.173455610871315
vn -0.93517142534255981 0.30881637334823608 -0.173455610871315
vn -0.93517142534255981 0.30881637334823608 -0.173455610871315
vn -0.93517142534255981 0.30881637334823608 -0.173455610871315
vn 0.30443137884140015 -0.054711911827325821 -0.95096170902252197
vn 0.30443137884140015 -0.054711911827325821 -0.95096170902252197
vn 0.50332498550415039 -0.60827070474624634 -0.61373502016067505
vn 0.45820537209510803 -0.43763485550880432 -0.77364307641983032
vn 0.82079017162322998 0.53642946481704712 0.1963336318731308
vn 0.25561526417732239 0.96662378311157227 0.017300965264439583
vn 0.25561526417732239 0.96662378311157227 0.017300965264439583
vn -0.28937551379203796 0.89793956279754639 0.33161181211471558
vn 0.9455762505531311 -0.18158212304115295 0.27002495527267456
vn 0.51954877376556396 -0.73227691650390625 -0.44027218222618103
vn 0.51954835653305054 -0.73227691650390625 -0.44027265906333923
vn -0.51955246925354004 0.73227596282958984 0.44026941061019897
vn -0.51955306529998779 0.73227584362030029 0.440268874168396
vn -0.51955193281173706 0.73227620124816895 0.44026964902877808
vn -0.51955187320709229 0.7322763204574585 0.44026950001716614
f 2//2 7//7 15//15 14//14 21//21 22//22
f 19//19 23//23 24//24 25//25 26//26 4//4
f 1//1 2//2 3//3 4//4
f 5//5 1//1 6//6 7//7
f 8//8 9//9 10//10 11//11
f 12//12 13//13 14//14 15//15
f 16//16 17//17 18//18 19//19
f 16//16 20//20 4//4 3//3
