# Rhino

mtllib piece3.mtl
usemtl diffuse_0_0_0_255
v 0.17448268977613465 0.0811359476823304 -0.095231317327118037
v 0.17448268977613465 0.0811359476823304 0.10476868267288197
v 0.14963768977613481 0.037744947682330388 -0.095231317327118037
v 0.14963768977613481 0.037744947682330388 0.10476868267288197
v 0.14963768977613481 0.037744947682330388 -0.095231317327118037
v 0.14963768977613481 0.037744947682330388 0.10476868267288197
v 0.19302768977613477 0.01290094768233041 -0.095231317327118037
v 0.19302768977613477 0.01290094768233041 0.10476868267288197
v 0.19302768977613477 0.01290094768233041 -0.095231317327118037
v 0.19302768977613477 0.01290094768233041 0.10476868267288197
v 0.21787268977613478 0.056291447682330409 -0.095231317327118037
v 0.21787268977613478 0.056291447682330409 0.10476868267288197
v 0.21787268977613478 0.056291447682330409 -0.095231317327118037
v 0.21787268977613478 0.056291447682330409 0.10476868267288197
v 0.17448268977613465 0.0811359476823304 -0.095231317327118037
v 0.17448268977613465 0.0811359476823304 0.10476868267288197
v 0.17448268977613465 0.0811359476823304 -0.095231317327118037
v 0.21787268977613478 0.056291447682330409 -0.095231317327118037
v 0.14963768977613481 0.037744947682330388 -0.095231317327118037
v 0.19302768977613477 0.01290094768233041 -0.095231317327118037
v 0.17448268977613465 0.0811359476823304 0.10476868267288197
v 0.21787268977613478 0.056291447682330409 0.10476868267288197
v 0.14963768977613481 0.037744947682330388 0.10476868267288197
v 0.19302768977613477 0.01290094768233041 0.10476868267288197
vn -0.86781084537506104 0.49689474701881409 0
vn -0.86781084537506104 0.49689474701881409 0
vn -0.86781084537506104 0.49689474701881409 0
vn -0.86781084537506104 0.49689474701881409 0
vn -0.49688833951950073 -0.86781448125839233 0
vn -0.49688833951950073 -0.86781448125839233 0
vn -0.49688833951950073 -0.86781448125839233 0
vn -0.49688833951950073 -0.86781448125839233 0
vn 0.86780834197998047 -0.4968990683555603 0
vn 0.86780834197998047 -0.4968990683555603 0
vn 0.86780834197998047 -0.4968990683555603 0
vn 0.86780834197998047 -0.4968990683555603 0
vn 0.49689584970474243 0.86781018972396851 0
vn 0.49689584970474243 0.86781018972396851 0
vn 0.49689584970474243 0.86781018972396851 0
vn 0.49689584970474243 0.86781018972396851 0
vn 0 0 -1
vn 0 0 -1
vn 0 0 -1
vn 0 0 -1
vn 0 0 1
vn 0 0 1
vn 0 0 1
vn 0 0 1
f 2//2 1//1 3//3 4//4
f 6//6 5//5 7//7 8//8
f 10//10 9//9 11//11 12//12
f 14//14 13//13 15//15 16//16
f 18//18 20//20 19//19 17//17
f 22//22 21//21 23//23 24//24
