# Rhino

mtllib piece1.mtl
usemtl diffuse_0_0_0_255
v -0.033212310223865289 -0.1316085523176696 -0.070231317327118029
v -0.033212310223865289 -0.1316085523176696 -0.020231317327118026
v 0.016787689776134714 -0.1316085523176696 -0.070231317327118029
v 0.016787689776134714 -0.1316085523176696 -0.020231317327118026
v 0.016787689776134714 -0.1316085523176696 -0.070231317327118029
v 0.016787689776134714 -0.1316085523176696 -0.020231317327118026
v 0.016787689776134714 0.1183914476823304 -0.070231317327118029
v 0.016787689776134714 0.1183914476823304 -0.020231317327118026
v 0.016787689776134714 0.1183914476823304 -0.070231317327118029
v 0.016787689776134714 0.1183914476823304 -0.020231317327118026
v -0.033212310223865289 0.1183914476823304 -0.070231317327118029
v -0.033212310223865289 0.1183914476823304 -0.020231317327118026
v -0.033212310223865289 0.1183914476823304 -0.070231317327118029
v -0.033212310223865289 0.1183914476823304 -0.020231317327118026
v -0.033212310223865289 -0.1316085523176696 -0.070231317327118029
v -0.033212310223865289 -0.1316085523176696 -0.020231317327118026
v -0.033212310223865289 -0.1316085523176696 -0.070231317327118029
v -0.033212310223865289 0.1183914476823304 -0.070231317327118029
v 0.016787689776134714 -0.1316085523176696 -0.070231317327118029
v 0.016787689776134714 0.1183914476823304 -0.070231317327118029
v -0.033212310223865289 -0.1316085523176696 -0.020231317327118026
v -0.033212310223865289 0.1183914476823304 -0.020231317327118026
v 0.016787689776134714 -0.1316085523176696 -0.020231317327118026
v 0.016787689776134714 0.1183914476823304 -0.020231317327118026
vn 0 -1 0
vn 0 -1 0
vn 0 -1 0
vn 0 -1 0
vn 1 0 0
vn 1 0 0
vn 1 0 0
vn 1 0 0
vn 0 1 0
vn 0 1 0
vn 0 1 0
vn 0 1 0
vn -1 0 0
vn -1 0 0
vn -1 0 0
vn -1 0 0
vn 0 0 -1
vn 0 0 -1
vn 0 0 -1
vn 0 0 -1
vn 0 0 1
vn 0 0 1
vn 0 0 1
vn 0 0 1
f 2//2 1//1 3//3 4//4
f 6//6 5//5 7//7 8//8
f 10//10 9//9 11//11 12//12
f 14//14 13//13 15//15 16//16
f 18//18 20//20 19//19 17//17
f 22//22 21//21 23//23 24//24
