# Rhino

mtllib piece4.mtl
usemtl diffuse_0_0_0_255
v 0.13977768977613469 0.043391447682330386 -0.020231317327118026
v 0.13977768977613469 0.043391447682330386 0.029768682672881977
v -0.2498673102238653 0.043391447682330386 -0.020231317327118026
v -0.2498673102238653 0.043391447682330386 0.029768682672881977
v -0.2498673102238653 0.043391447682330386 -0.020231317327118026
v -0.2498673102238653 0.043391447682330386 0.029768682672881977
v -0.2498673102238653 -0.0066085523176696026 -0.020231317327118026
v -0.2498673102238653 -0.0066085523176696026 0.029768682672881977
v -0.2498673102238653 -0.0066085523176696026 -0.020231317327118026
v -0.2498673102238653 -0.0066085523176696026 0.029768682672881977
v -0.21022231022386531 -0.0066085523176696026 -0.020231317327118026
v -0.21022231022386531 -0.0066085523176696026 0.029768682672881977
v -0.21022231022386531 -0.0066085523176696026 -0.020231317327118026
v -0.21022231022386531 -0.0066085523176696026 0.029768682672881977
v -0.19276231022386534 0.023881947682330429 -0.020231317327118026
v -0.19276231022386534 0.023881947682330429 0.029768682672881977
v -0.19276231022386534 0.023881947682330429 -0.020231317327118026
v -0.19276231022386534 0.023881947682330429 0.029768682672881977
v -0.13951231022386526 -0.0066085523176696026 -0.020231317327118026
v -0.13951231022386526 -0.0066085523176696026 0.029768682672881977
v -0.13951231022386526 -0.0066085523176696026 -0.020231317327118026
v -0.13951231022386526 -0.0066085523176696026 0.029768682672881977
v 0.25013268977613468 -0.0066085523176696026 -0.020231317327118026
v 0.25013268977613468 -0.0066085523176696026 0.029768682672881977
v 0.25013268977613468 -0.0066085523176696026 -0.020231317327118026
v 0.25013268977613468 -0.0066085523176696026 0.029768682672881977
v 0.25013268977613468 0.043391447682330386 -0.020231317327118026
v 0.25013268977613468 0.043391447682330386 0.029768682672881977
v 0.25013268977613468 0.043391447682330386 -0.020231317327118026
v 0.25013268977613468 0.043391447682330386 0.029768682672881977
v 0.21048768977613475 0.043391447682330386 -0.020231317327118026
v 0.21048768977613475 0.043391447682330386 0.029768682672881977
v 0.21048768977613475 0.043391447682330386 -0.020231317327118026
v 0.21048768977613475 0.043391447682330386 0.029768682672881977
v 0.19302768977613477 0.01290094768233041 -0.020231317327118026
v 0.19302768977613477 0.01290094768233041 0.029768682672881977
v 0.19302768977613477 0.01290094768233041 -0.020231317327118026
v 0.19302768977613477 0.01290094768233041 0.029768682672881977
v 0.13977768977613469 0.043391447682330386 -0.020231317327118026
v 0.13977768977613469 0.043391447682330386 0.029768682672881977
v -0.2498673102238653 -0.0066085523176696026 -0.020231317327118026
v -0.2498673102238653 0.043391447682330386 -0.020231317327118026
v 0.25013268977613468 -0.0066085523176696026 -0.020231317327118026
v 0.25013268977613468 0.043391447682330386 -0.020231317327118026
v 0.13977768977613469 0.043391447682330386 -0.020231317327118026
v -0.21022231022386531 -0.0066085523176696026 -0.020231317327118026
v -0.19276231022386534 0.023881947682330429 -0.020231317327118026
v -0.13951231022386526 -0.0066085523176696026 -0.020231317327118026
v 0.21048768977613475 0.043391447682330386 -0.020231317327118026
v 0.19302768977613477 0.01290094768233041 -0.020231317327118026
v -0.2498673102238653 -0.0066085523176696026 0.029768682672881977
v -0.2498673102238653 0.043391447682330386 0.029768682672881977
v 0.25013268977613468 -0.0066085523176696026 0.029768682672881977
v 0.25013268977613468 0.043391447682330386 0.029768682672881977
v 0.13977768977613469 0.043391447682330386 0.029768682672881977
v -0.21022231022386531 -0.0066085523176696026 0.029768682672881977
v -0.19276231022386534 0.023881947682330429 0.029768682672881977
v -0.13951231022386526 -0.0066085523176696026 0.029768682672881977
v 0.21048768977613475 0.043391447682330386 0.029768682672881977
v 0.19302768977613477 0.01290094768233041 0.029768682672881977
vn 0 1 0
vn 0 1 0
vn 0 1 0
vn 0 1 0
vn -1 0 0
vn -1 0 0
vn -1 0 0
vn -1 0 0
vn 0 -1 0
vn 0 -1 0
vn 0 -1 0
vn 0 -1 0
vn 0.86779093742370605 -0.49692946672439575 0
vn 0.86779093742370605 -0.49692946672439575 0
vn 0.86779093742370605 -0.49692946672439575 0
vn 0.86779093742370605 -0.49692946672439575 0
vn -0.49689954519271851 -0.86780804395675659 0
vn -0.49689954519271851 -0.86780804395675659 0
vn -0.49689954519271851 -0.86780804395675659 0
vn -0.49689954519271851 -0.86780804395675659 0
vn 0 -1 0
vn 0 -1 0
vn 0 -1 0
vn 0 -1 0
vn 1 0 0
vn 1 0 0
vn 1 0 0
vn 1 0 0
vn 0 1 0
vn 0 1 0
vn 0 1 0
vn 0 1 0
vn -0.86779093742370605 0.49692946672439575 0
vn -0.86779093742370605 0.49692946672439575 0
vn -0.86779093742370605 0.49692946672439575 0
vn -0.86779093742370605 0.49692946672439575 0
vn 0.49689954519271851 0.86780804395675659 0
vn 0.49689954519271851 0.86780804395675659 0
vn 0.49689954519271851 0.86780804395675659 0
vn 0.49689954519271851 0.86780804395675659 0
vn 0 0 -1
vn 0 0 -1
vn 0 0 -1
vn 0 0 -1
vn 0 0 -1
vn 0 0 -1
vn 0 0 -1
vn 0 0 -1
vn 0 0 -1
vn 0 0 -1
vn 0 0 1
vn 0 0 1
vn 0 0 1
vn 0 0 1
vn 0 0 1
vn 0 0 1
vn 0 0 1
vn 0 0 1
vn 0 0 1
vn 0 0 1
f 47//47 46//46 41//41 42//42 45//45 50//50 49//49 44//44 43//43 48//48
f 51//51 56//56 57//57 58//58 53//53 54//54 59//59 60//60 55//55 52//52
f 2//2 1//1 3//3 4//4
f 6//6 5//5 7//7 8//8
f 10//10 9//9 11//11 12//12
f 14//14 13//13 15//15 16//16
f 18//18 17//17 19//19 20//20
f 22//22 21//21 23//23 24//24
f 26//26 25//25 27//27 28//28
f 30//30 29//29 31//31 32//32
f 34//34 33//33 35//35 36//36
f 38//38 37//37 39//39 40//40
